# xmcd
#
# Track frame offsets:
# 150
# 11082
# 37407
# 53069
# 68539
# 116191
# 131942
# 158240
# 180947
# 205580
# 222309
# 260147
# 278624
# 297325
#
# Disc length: 4464 seconds
#
#
# Revision: 0
# Processed by: cddbd v1.5.2PL0 Copyright (c) Steve Scherf et al.
# Submitted via: FreeRIP 2.53 
#
DISCID=d9116e0e
DTITLE=Tim Wheals - Boogie Woogie: Echoes of the Left Hand
DYEAR=2005
DGENRE=Boogie Woogie
TTITLE0=October Jump
TTITLE1=I Like Your Style
TTITLE2=Lament for Jimmy Yancey
TTITLE3=Honky Tonk Train Blues
TTITLE4=Storm Walk Thinking
TTITLE5=North
TTITLE6=Dance, Donkey, Dance!
TTITLE7=Smash Lullaby
TTITLE8=JazzinG
TTITLE9=Pinetop's Chug
TTITLE10=Erwin Helfer's Rumble
TTITLE11=Stumpy Piano Blues
TTITLE12=HH Mystery Blues
TTITLE13=I Still Like Your Style
EXTD=www.boogiewoogie.org.uk
EXTT0=
EXTT1=
EXTT2=
EXTT3=
EXTT4=
EXTT5=
EXTT6=
EXTT7=
EXTT8=
EXTT9=
EXTT10=
EXTT11=
EXTT12=
EXTT13=
PLAYORDER=
